# xmcd
#
# Track frame offsets:
#	150
#	16548
#	35806
#	49212
#	62148
#	75204
#	95810
#	109236
#	132483
#	151447
#	155065
#	160223
#
# Disc length: 2291 seconds
#
# Revision: 1
# Processed by: cddbd v1.5.2PL0 Copyright (c) Steve Scherf et al.
# Submitted via: audiograbber 1.83.01
#
DISCID=9a08f10c
DTITLE=Jenny Lewis with the Watson Twins - Rabbit Furcoat
DYEAR=2006
DGENRE=Country
TTITLE0=Rise Up with Fists
TTITLE1=Happy
TTITLE2=The Charging Sky
TTITLE3=Melt Your Heart
TTITLE4=You Are What You Love
TTITLE5=Rabbit Furcoat
TTITLE6=Handle with Care
TTITLE7=Born Secular
TTITLE8=It Wasn't Me
TTITLE9=Happy (Reprise)
TTITLE10=Run Devil Run
TTITLE11=Big Guns
EXTD=
EXTT0=
EXTT1=
EXTT2=
EXTT3=
EXTT4=
EXTT5=
EXTT6=
EXTT7=
EXTT8=
EXTT9=
EXTT10=
EXTT11=
PLAYORDER=
